<?xml version="1.0" encoding="UTF-8"?>
<svg version="1.1" xmlns="http://www.w3.org/2000/svg" width="500" height="500">
<path d="M0 0 C2.12729134 1.96828619 4.21235941 3.97564201 6.28027344 6.00610352 C7.70519802 7.39705638 9.15932211 8.75790156 10.61425781 10.11743164 C21.93502968 20.9265302 30.51334686 33.62500823 37.75488281 47.44555664 C38.36074219 48.5915332 38.96660156 49.73750977 39.59082031 50.91821289 C49.61859248 70.64266435 54.75488281 94.40246175 54.75488281 116.44555664 C16.47488281 116.44555664 -21.80511719 116.44555664 -61.24511719 116.44555664 C-63.22511719 109.18555664 -65.20511719 101.92555664 -67.24511719 94.44555664 C-74.06333686 78.08182943 -85.88974447 66.97560103 -102.09277344 60.01977539 C-125.21117285 50.8176269 -153.27802951 51.00217431 -176.24511719 60.44555664 C-198.72585603 70.64146696 -214.26821848 88.67310145 -223.03564453 111.50415039 C-236.49325121 149.48065997 -238.49976408 200.99205325 -221.13574219 238.12133789 C-217.08538747 246.29188103 -212.42661616 253.69992087 -206.24511719 260.44555664 C-205.5709375 261.21125977 -204.89675781 261.97696289 -204.20214844 262.76586914 C-193.77760317 273.96893236 -180.07177528 279.61073796 -166.24511719 285.44555664 C-169.61735798 289.50705126 -172.99036262 293.29757241 -176.99511719 296.75805664 C-180.58155176 299.9190733 -184.01291114 303.1668662 -187.37011719 306.57055664 C-190.22442002 309.46037179 -193.09313097 312.24661117 -196.18261719 314.88305664 C-199.53436815 317.74728019 -202.65068136 320.80889757 -205.74511719 323.94555664 C-209.41358939 327.66401654 -213.17660944 331.18223856 -217.15136719 334.57055664 C-219.78497275 336.92900938 -222.26337937 339.43001344 -224.74511719 341.94555664 C-227.79849669 345.04047166 -230.86835404 348.06489941 -234.18261719 350.88305664 C-238.36929606 354.44563432 -242.19615336 358.34115215 -246.03393555 362.27148438 C-248.62826542 364.91041837 -251.20342154 367.33085395 -254.24511719 369.44555664 C-268.43572866 362.91445594 -280.97241075 350.98604801 -292.24511719 340.44555664 C-293.18097656 339.57543945 -294.11683594 338.70532227 -295.08105469 337.80883789 C-333.30224949 301.43419982 -351.69205972 245.92236401 -353.53271484 194.11669922 C-353.65505667 188.7985294 -353.66773439 183.48313499 -353.63623047 178.16381836 C-353.62011992 174.94610245 -353.63621657 171.72964185 -353.65527344 168.51196289 C-353.71404466 111.50361072 -335.07868747 57.52550518 -296.24511719 15.44555664 C-295.54370605 14.6842041 -295.54370605 14.6842041 -294.828125 13.9074707 C-287.64169471 6.20365882 -279.72089742 -0.34482875 -271.24511719 -6.55444336 C-270.67873535 -6.97048828 -270.11235352 -7.3865332 -269.52880859 -7.81518555 C-252.44052947 -20.18150978 -233.42817438 -29.51483207 -213.24511719 -35.55444336 C-212.48344238 -35.78711914 -211.72176758 -36.01979492 -210.93701172 -36.25952148 C-143.2269607 -56.60296502 -54.35089389 -48.8227487 0 0 Z " fill="#0098FE" transform="translate(353.2451171875,85.554443359375)"/>
<path d="M0 0 C77.88 0 155.76 0 236 0 C236 73.92 236 147.84 236 224 C206.3 224 176.6 224 146 224 C145.67 199.25 145.34 174.5 145 149 C134.84498757 158.36068486 134.84498757 158.36068486 125.03515625 167.99609375 C123.12513946 169.87678207 121.16219409 171.63412505 119.125 173.375 C115.75442235 176.26214819 112.61496479 179.34247378 109.5 182.5 C106.44662714 185.59492241 103.37676268 188.61934317 100.0625 191.4375 C95.95652263 194.93643349 92.21418998 198.75832589 88.42651367 202.59301758 C85.11261995 205.93206817 81.72553311 209.09880336 78.09348106 212.09427834 C75.90488465 214.0053803 75.90488465 214.0053803 73.89353371 216.47717857 C69.63332074 221.36916598 66.49485465 224.58565761 59.8621521 225.20254517 C57.5518879 225.23121866 55.24052216 225.20563808 52.93115234 225.13525391 C51.66172791 225.13671417 50.39230347 225.13817444 49.08441162 225.13967896 C45.63324918 225.14252644 42.18562463 225.08411506 38.73527861 225.01393938 C35.11867877 224.95104698 31.50198053 224.94552285 27.88491821 224.9336853 C21.04919449 224.90271287 14.21508702 224.82080653 7.38007224 224.72019041 C-0.40696473 224.60807019 -8.19408254 224.55334833 -15.98172688 224.50323606 C-31.98875111 224.39895823 -47.99416643 224.22328686 -64 224 C-60.31868695 216.14177274 -52.63467116 210.46962809 -46.12890625 204.91015625 C-43.48522236 202.53811695 -40.99337231 200.02738831 -38.5 197.5 C-35.44662382 194.40508128 -32.37676292 191.38065703 -29.0625 188.5625 C-25.52320926 185.54647196 -22.26505255 182.30552422 -19 179 C-15.14878063 175.10104317 -11.23578271 171.39175703 -7.05859375 167.83984375 C-3.92846838 165.04233133 -1.01314342 162.03375494 1.93383789 159.04663086 C5.13385771 155.82001347 8.45072272 152.82069539 11.90625 149.875 C14.53985527 147.51654752 17.01826514 145.01554596 19.5 142.5 C23.16847581 138.78154495 26.93149229 135.26331805 30.90625 131.875 C33.53985527 129.51654752 36.01826514 127.01554596 38.5 124.5 C42.16847581 120.78154495 45.93149229 117.26331805 49.90625 113.875 C53.04366198 111.06537733 55.97062708 108.05030531 58.92700195 105.0534668 C61.59604293 102.36216449 64.31188258 99.78135032 67.1875 97.3125 C71.30297743 93.73675731 75.14493254 89.85506746 79 86 C39.895 85.505 39.895 85.505 0 85 C0 56.95 0 28.9 0 0 Z " fill="#FE4157" transform="translate(175,236)"/>
<path d="M0 0 C22.11 0 44.22 0 67 0 C67 19 67 19 63.34375 22.69921875 C61.58072318 23.50715757 59.79667744 24.26994597 58 25 C55.80932511 26.25389092 53.63299107 27.53304723 51.46875 28.83203125 C49.14754608 30.16199707 46.82495282 31.48913942 44.5 32.8125 C42.15508556 34.15032808 39.81168302 35.49072884 37.46875 36.83203125 C36.44201172 37.41702393 35.41527344 38.0020166 34.35742188 38.60473633 C32.12000114 39.79721264 32.12000114 39.79721264 31 41 C42.88 41.33 54.76 41.66 67 42 C67 47.94 67 53.88 67 60 C44.89 60 22.78 60 0 60 C0 53.07 0 46.14 0 39 C1.83304687 37.98679688 3.66609375 36.97359375 5.5546875 35.9296875 C7.36546957 34.92718164 9.17591357 33.9240678 10.98632812 32.92089844 C12.22718848 32.23374154 13.46838929 31.547199 14.70996094 30.86132812 C16.51331033 29.8649703 18.3153481 28.86627292 20.1171875 27.8671875 C21.19597168 27.27019043 22.27475586 26.67319336 23.38623047 26.05810547 C27.96849099 23.4484273 32.47819567 20.7130826 37 18 C18.685 17.505 18.685 17.505 0 17 C0 11.39 0 5.78 0 0 Z " fill="#0098FE" transform="translate(432,193)"/>
<path d="M0 0 C12.21 0 24.42 0 37 0 C37 4.29 37 8.58 37 13 C35.68 13.66 34.36 14.32 33 15 C33.639375 15.928125 34.27875 16.85625 34.9375 17.8125 C39.49006448 24.84828146 38.6743466 33.8626332 38 42 C36.36063454 49.34751747 31.27681187 56.16282362 25.015625 60.31640625 C13.97402314 66.11538707 0.525828 66.95624201 -11.4375 63.5625 C-19.16616741 60.55395409 -25.70520288 55.08410917 -29.5625 47.6875 C-33.27589788 38.16182717 -34.12919511 24.46646174 -30.1015625 14.88671875 C-26.32567553 8.41950809 -21.32752793 3.18389068 -14 1 C-11.2578125 0.90625 -11.2578125 0.90625 -9 1 C-8.83783936 3.91889148 -8.71908798 6.82879225 -8.625 9.75 C-8.54958984 10.9875 -8.54958984 10.9875 -8.47265625 12.25 C-8.41488223 14.63799284 -8.43229558 16.67731517 -9 19 C-11.92578125 21.30859375 -11.92578125 21.30859375 -15 23 C-17.30521199 27.31529303 -17.22867974 31.17944328 -15.9375 35.8125 C-13.01384691 40.6223809 -10.59423562 42.46858813 -5.25 44.25 C2.60011685 45.88482734 9.68049942 45.42458561 17 42 C20.71409969 39.23823356 22.04636191 36.50810732 23 32 C23.07574542 27.71617578 22.48861177 24.77503936 20.1875 21.125 C17.91999667 18.70795919 17.91999667 18.70795919 14 17 C14 22.28 14 27.56 14 33 C9.38 33 4.76 33 0 33 C0 22.11 0 11.22 0 0 Z " fill="#0098FD" transform="translate(462,121)"/>
<path d="M0 0 C22.11 0 44.22 0 67 0 C67 6.27 67 12.54 67 19 C58.09 19 49.18 19 40 19 C40 26.26 40 33.52 40 41 C48.91 41 57.82 41 67 41 C67 47.27 67 53.54 67 60 C44.89 60 22.78 60 0 60 C0 53.73 0 47.46 0 41 C8.25 41 16.5 41 25 41 C25 33.74 25 26.48 25 19 C16.75 19 8.5 19 0 19 C0 12.73 0 6.46 0 0 Z " fill="#0098FE" transform="translate(432,330)"/>
<path d="M0 0 C0 6.93 0 13.86 0 21 C-6.435 22.98 -6.435 22.98 -13 25 C-13.33 31.93 -13.66 38.86 -14 46 C-12.06125 46.474375 -10.1225 46.94875 -8.125 47.4375 C-2.25 48.875 -2.25 48.875 0 50 C0 56.93 0 63.86 0 71 C-22.37074844 63.77481932 -44.70864796 56.46705388 -67 49 C-67 40.09 -67 31.18 -67 22 C-26.4011254 8.10269293 -26.4011254 8.10269293 -11.5625 3.125 C-10.59505859 2.79822266 -9.62761719 2.47144531 -8.63085938 2.13476562 C-7.76396484 1.84537109 -6.89707031 1.55597656 -6.00390625 1.2578125 C-4.90284546 0.88873779 -4.90284546 0.88873779 -3.77954102 0.51220703 C-2 0 -2 0 0 0 Z M-34.12890625 29.53125 C-35.68061523 30.00498047 -35.68061523 30.00498047 -37.26367188 30.48828125 C-38.35228516 30.82214844 -39.44089844 31.15601563 -40.5625 31.5 C-42.2012207 32.00080078 -42.2012207 32.00080078 -43.87304688 32.51171875 C-46.58241222 33.33990903 -49.29137482 34.16939281 -52 35 C-49.37562161 36.74958559 -47.81796628 37.4748682 -44.875 38.2890625 C-44.08609375 38.50820313 -43.2971875 38.72734375 -42.484375 38.953125 C-41.66453125 39.17484375 -40.8446875 39.3965625 -40 39.625 C-39.18015625 39.85445313 -38.3603125 40.08390625 -37.515625 40.3203125 C-32.82859361 41.61343596 -32.82859361 41.61343596 -28 42 C-28 37.38 -28 32.76 -28 28 C-30.07295007 28 -32.17222864 28.93248527 -34.12890625 29.53125 Z " fill="#0098FD" transform="translate(499,256)"/>
<path d="M0 0 C4.62 0 9.24 0 14 0 C14 16.83 14 33.66 14 51 C-8.11 51 -30.22 51 -53 51 C-53 34.5 -53 18 -53 1 C-48.38 1 -43.76 1 -39 1 C-39 11.23 -39 21.46 -39 32 C-35.37 32 -31.74 32 -28 32 C-28 22.43 -28 12.86 -28 3 C-23.05 3 -18.1 3 -13 3 C-13 12.57 -13 22.14 -13 32 C-8.71 32 -4.42 32 0 32 C0 21.44 0 10.88 0 0 Z " fill="#0098FE" transform="translate(485,62)"/>
<path d="M0 0 C0.1746397 3.08261456 0.28094067 6.16395833 0.375 9.25 C0.45041016 10.55904297 0.45041016 10.55904297 0.52734375 11.89453125 C0.5846088 14.3951053 0.56593898 16.56158556 0 19 C-2.8984375 21.421875 -2.8984375 21.421875 -6 23 C-8.6893186 27.0339779 -8.7926321 30.26038359 -8 35 C-6.33847127 38.25439925 -4.10370215 40.41509796 -0.84765625 42.140625 C2.90272304 43.27242671 6.49486851 43.32945862 10.375 43.3125 C11.10460937 43.32861328 11.83421875 43.34472656 12.5859375 43.36132812 C18.84606617 43.36691753 23.60253393 42.09009862 28.4375 37.875 C30.62149771 33.85644422 30.79648062 30.47817165 30 26 C27.24706945 21.02354862 25.73610502 20.91203501 20 19 C20 12.73 20 6.46 20 0 C27.87295363 0.21869316 32.36605056 1.41441064 38 7 C45.84252973 15.60935486 46.55809228 24.41366391 46.31640625 35.59765625 C45.90116951 43.78598582 42.82870285 50.30376767 37 56 C27.4199771 63.65526944 15.92789974 65.01130857 4 64 C-5.02277607 62.39456812 -12.99700918 58.27399095 -18.6796875 50.9765625 C-24.81457623 41.79237997 -25.23384794 31.74008551 -24 21 C-22.44267671 14.47672234 -19.65510707 8.37142806 -13.88671875 4.62890625 C-9.23887865 1.94365657 -5.43947563 0 0 0 Z " fill="#0098FD" transform="translate(454,396)"/>
</svg>
